# xmcd CD database file
#
# Track frame offsets:
#	150
#	20849
#	39167
#	54273
#	73778
#	91738
#	108806
#	127947
#	142628
#	156462
#	176164
#
# Disc length: 2603 seconds
#
# Revision: 0
# Processed by: cddbd v1.5.1PL2 Copyright (c) Steve Scherf et al.
# Submitted via: CDex 1.50
#
DISCID=860a290b
DTITLE=Jeanette Wormald - Opal Blue
DYEAR=2006
DGENRE=Country
TTITLE0=Bounadary Rider's Daughter
TTITLE1=Maralinga Dawn
TTITLE2=Eyes Of A Child
TTITLE3=Horizons And Heartlands
TTITLE4=Opal Blue
TTITLE5=Pukulpa Days
TTITLE6=Out Here
TTITLE7=Dirt In His Hands
TTITLE8=It's Going To Rain
TTITLE9=Let's Go Fishing
TTITLE10=If This Isn't Country
EXTD=YEAR: 2006
EXTT0=
EXTT1=
EXTT2=
EXTT3=
EXTT4=
EXTT5=
EXTT6=
EXTT7=
EXTT8=
EXTT9=
EXTT10=
PLAYORDER=
